HIERARCHY
ROOT Hips
{
	OFFSET 0 0 0
	CHANNELS 6 Xposition Yposition Zposition Yrotation Xrotation Zrotation
	JOINT Spine
	{
		OFFSET -0 8.08628 -2.5775
		CHANNELS 3 Yrotation Xrotation Zrotation
		JOINT Spine1
		{
			OFFSET -0 8.17342 0
			CHANNELS 3 Yrotation Xrotation Zrotation
			JOINT Spine2
			{
				OFFSET -0 8.17342 0
				CHANNELS 3 Yrotation Xrotation Zrotation
				JOINT Spine3
				{
					OFFSET -0 8.17342 0
					CHANNELS 3 Yrotation Xrotation Zrotation
					JOINT Neck
					{
						OFFSET -0 13.9808 3.5775
						CHANNELS 3 Yrotation Xrotation Zrotation
						JOINT Head
						{
							OFFSET -0 10.1078 0
							CHANNELS 3 Yrotation Xrotation Zrotation
							End Site
							{
								OFFSET 0 15 0
							}
						}
					}
					JOINT LeftShoulder
					{
						OFFSET 1.68464 1.97436 3.36928
						CHANNELS 3 Yrotation Xrotation Zrotation
						JOINT LeftArm
						{
							OFFSET 16.4919 0 0
							CHANNELS 3 Yrotation Xrotation Zrotation
							JOINT LeftForeArm
							{
								OFFSET 23.9853 0 0
								CHANNELS 3 Yrotation Xrotation Zrotation
								JOINT LeftHand
								{
									OFFSET 23.7665 0 0
									CHANNELS 3 Yrotation Xrotation Zrotation
									JOINT LeftHandThumb1
									{
										OFFSET 4.73892 0 0.95067
										CHANNELS 3 Yrotation Xrotation Zrotation
										JOINT LeftHandThumb2
										{
											OFFSET 3 0 1
											CHANNELS 3 Yrotation Xrotation Zrotation
											JOINT LeftHandThumb3
											{
												OFFSET 2.1 0 0
												CHANNELS 3 Yrotation Xrotation Zrotation
												JOINT LeftHandThumb4
												{
													OFFSET 1.305 0 0
													CHANNELS 3 Yrotation Xrotation Zrotation
													End Site
													{
														OFFSET -0 0 0
													}
												}
											}
										}
									}
									JOINT LeftHandIndex1
									{
										OFFSET 9.00175 0 2.03831
										CHANNELS 3 Yrotation Xrotation Zrotation
										JOINT LeftHandIndex2
										{
											OFFSET 3.5 0 0
											CHANNELS 3 Yrotation Xrotation Zrotation
											JOINT LeftHandIndex3
											{
												OFFSET 2.45 0 0
												CHANNELS 3 Yrotation Xrotation Zrotation
												JOINT LeftHandIndex4
												{
													OFFSET 1.5225 0 0
													CHANNELS 3 Yrotation Xrotation Zrotation
													End Site
													{
														OFFSET -0 0 0
													}
												}
											}
										}
									}
									JOINT LeftHandMiddle1
									{
										OFFSET 8.95394 0 0.459792
										CHANNELS 3 Yrotation Xrotation Zrotation
										JOINT LeftHandMiddle2
										{
											OFFSET 4.6 0 0
											CHANNELS 3 Yrotation Xrotation Zrotation
											JOINT LeftHandMiddle3
											{
												OFFSET 3.22 0 0
												CHANNELS 3 Yrotation Xrotation Zrotation
												JOINT LeftHandMiddle4
												{
													OFFSET 2.001 0 0
													CHANNELS 3 Yrotation Xrotation Zrotation
													End Site
													{
														OFFSET -0 0 0
													}
												}
											}
										}
									}
									JOINT LeftHandRing1
									{
										OFFSET 8.60612 0 -1.11872
										CHANNELS 3 Yrotation Xrotation Zrotation
										JOINT LeftHandRing2
										{
											OFFSET 3.75 0 0
											CHANNELS 3 Yrotation Xrotation Zrotation
											JOINT LeftHandRing3
											{
												OFFSET 2.625 0 0
												CHANNELS 3 Yrotation Xrotation Zrotation
												JOINT LeftHandRing4
												{
													OFFSET 1.63125 0 0
													CHANNELS 3 Yrotation Xrotation Zrotation
													End Site
													{
														OFFSET -0 0 0
													}
												}
											}
										}
									}
									JOINT LeftHandPinky1
									{
										OFFSET 7.9583 0 -2.69724
										CHANNELS 3 Yrotation Xrotation Zrotation
										JOINT LeftHandPinky2
										{
											OFFSET 2.875 0 0
											CHANNELS 3 Yrotation Xrotation Zrotation
											JOINT LeftHandPinky3
											{
												OFFSET 2.0125 0 0
												CHANNELS 3 Yrotation Xrotation Zrotation
												JOINT LeftHandPinky4
												{
													OFFSET 1.25062 0 0
													CHANNELS 3 Yrotation Xrotation Zrotation
													End Site
													{
														OFFSET -0 0 0
													}
												}
											}
										}
									}
								}
							}
						}
					}
					JOINT RightShoulder
					{
						OFFSET -1.68464 1.97436 3.36928
						CHANNELS 3 Yrotation Xrotation Zrotation
						JOINT RightArm
						{
							OFFSET -16.4919 0 0
							CHANNELS 3 Yrotation Xrotation Zrotation
							JOINT RightForeArm
							{
								OFFSET -23.9853 0 0
								CHANNELS 3 Yrotation Xrotation Zrotation
								JOINT RightHand
								{
									OFFSET -23.7665 0 0
									CHANNELS 3 Yrotation Xrotation Zrotation
									JOINT RightHandThumb1
									{
										OFFSET -4.49364 0 2.24179
										CHANNELS 3 Yrotation Xrotation Zrotation
										JOINT RightHandThumb2
										{
											OFFSET -3 0 1
											CHANNELS 3 Yrotation Xrotation Zrotation
											JOINT RightHandThumb3
											{
												OFFSET -2.1 0 0
												CHANNELS 3 Yrotation Xrotation Zrotation
												JOINT RightHandThumb4
												{
													OFFSET -1.305 0 0
													CHANNELS 3 Yrotation Xrotation Zrotation
													End Site
													{
														OFFSET -0 0 0
													}
												}
											}
										}
									}
									JOINT RightHandIndex1
									{
										OFFSET -8.61172 0 3.12336
										CHANNELS 3 Yrotation Xrotation Zrotation
										JOINT RightHandIndex2
										{
											OFFSET -3.5 0 0
											CHANNELS 3 Yrotation Xrotation Zrotation
											JOINT RightHandIndex3
											{
												OFFSET -2.45 0 0
												CHANNELS 3 Yrotation Xrotation Zrotation
												JOINT RightHandIndex4
												{
													OFFSET -1.5225 0 0
													CHANNELS 3 Yrotation Xrotation Zrotation
													End Site
													{
														OFFSET -0 0 0
													}
												}
											}
										}
									}
									JOINT RightHandMiddle1
									{
										OFFSET -8.49707 0 1.18186
										CHANNELS 3 Yrotation Xrotation Zrotation
										JOINT RightHandMiddle2
										{
											OFFSET -4.6 0 0
											CHANNELS 3 Yrotation Xrotation Zrotation
											JOINT RightHandMiddle3
											{
												OFFSET -3.22 0 0
												CHANNELS 3 Yrotation Xrotation Zrotation
												JOINT RightHandMiddle4
												{
													OFFSET -2.001 0 0
													CHANNELS 3 Yrotation Xrotation Zrotation
													End Site
													{
														OFFSET -0 0 0
													}
												}
											}
										}
									}
									JOINT RightHandRing1
									{
										OFFSET -8.08241 0 -0.759647
										CHANNELS 3 Yrotation Xrotation Zrotation
										JOINT RightHandRing2
										{
											OFFSET -3.75 0 0
											CHANNELS 3 Yrotation Xrotation Zrotation
											JOINT RightHandRing3
											{
												OFFSET -2.625 0 0
												CHANNELS 3 Yrotation Xrotation Zrotation
												JOINT RightHandRing4
												{
													OFFSET -1.63125 0 0
													CHANNELS 3 Yrotation Xrotation Zrotation
													End Site
													{
														OFFSET -0 0 0
													}
												}
											}
										}
									}
									JOINT RightHandPinky1
									{
										OFFSET -7.36776 0 -2.70115
										CHANNELS 3 Yrotation Xrotation Zrotation
										JOINT RightHandPinky2
										{
											OFFSET -2.875 0 0
											CHANNELS 3 Yrotation Xrotation Zrotation
											JOINT RightHandPinky3
											{
												OFFSET -2.0125 0 0
												CHANNELS 3 Yrotation Xrotation Zrotation
												JOINT RightHandPinky4
												{
													OFFSET -1.25062 0 0
													CHANNELS 3 Yrotation Xrotation Zrotation
													End Site
													{
														OFFSET -0 0 0
													}
												}
											}
										}
									}
								}
							}
						}
					}
				}
			}
		}
	}
	JOINT LeftUpLeg
	{
		OFFSET 10.1078 -3.36928 3
		CHANNELS 3 Yrotation Xrotation Zrotation
		JOINT LeftLeg
		{
			OFFSET -0 -43.6821 2.3585
			CHANNELS 3 Yrotation Xrotation Zrotation
			JOINT LeftFoot
			{
				OFFSET -0 -36.6228 -2.3585
				CHANNELS 3 Yrotation Xrotation Zrotation
				JOINT LeftToeBase
				{
					OFFSET -0 -9.28843 9.36804
					CHANNELS 3 Yrotation Xrotation Zrotation
					End Site
					{
						OFFSET 0 0 5
					}
				}
			}
		}
	}
	JOINT RightUpLeg
	{
		OFFSET -10.1078 -3.36928 3
		CHANNELS 3 Yrotation Xrotation Zrotation
		JOINT RightLeg
		{
			OFFSET -0 -43.6821 2.3585
			CHANNELS 3 Yrotation Xrotation Zrotation
			JOINT RightFoot
			{
				OFFSET -0 -36.6228 -2.3585
				CHANNELS 3 Yrotation Xrotation Zrotation
				JOINT RightToeBase
				{
					OFFSET -0 -9.28843 9.36804
					CHANNELS 3 Yrotation Xrotation Zrotation
					End Site
					{
						OFFSET 0 0 5
					}
				}
			}
		}
	}
}
MOTION
Frames: 4
Frame Time: 0.00833333
0 94.002965 0 0 0 0 0 0 0 0 0 0 0 0 0 0 0 0 0 0 0 0 0 0 0 0 0 0 0 0 0 0 0 0 0 0 0 0 0 0 0 0 0 0 0 0 0 0 0 0 0 0 0 0 0 0 0 0 0 0 0 0 0 0 0 0 0 0 0 0 0 0 0 0 0 0 0 0 0 0 0 0 0 0 0 0 0 0 0 0 0 0 0 0 0 0 0 0 0 0 0 0 0 0 0 0 0 0 0 0 0 0 0 0 0 0 0 0 0 0 0 0 0 0 0 0 0 0 0 0 0 0 0 0 0 0 0 0 0 0 0 0 0 0 0 0 0 0 0 0 0 0 0 0 0 0 0 0 0 0 0 0 0 0 0 0 0 0 0 0 0 0 0 0 0 0 0 0 0 0 0 0 0 0 0 0 0 0 0 0 0 0
-29.833432 93.603271 1.658844 0.998429 -1.523503 1.081168 0.728882 0.078873 -0.347054 0.609752 0.045028 -0.302628 0.341398 0.055034 -0.243777 0.222724 -0.002423 -0.175038 -2.552813 -5.332409 -0.769827 -1.077674 5.425720 0.288938 6.131600 -0.337847 11.693892 -1.490376 2.763362 -3.795908 -4.074060 2.442647 -2.916338 7.915020 13.407549 -14.944340 29.079011 6.301350 4.692526 33.509167 7.010873 5.654939 -0.920763 -16.235267 5.400335 0.000005 -0.000004 9.345799 0.000005 -0.000004 9.345799 -0.000021 0.000006 7.476631 0.000012 0.000005 3.738323 -0.000013 -0.000004 -7.737161 -0.000013 -0.000004 -7.737161 0.000009 -0.000004 -6.189726 0.000000 -0.000000 -3.094866 -0.000002 -0.000003 6.831365 -0.000002 -0.000003 6.831365 0.000007 -0.000003 5.465094 -0.000000 -0.000000 2.732548 -0.000011 -0.000010 3.531036 -0.000011 -0.000010 3.531036 -0.000000 -0.000007 2.824826 0.000007 0.000000 1.412416 -168.518891 -0.014019 -179.860548 -4.679003 -0.836553 -12.947732 9.472279 -5.293915 1.125460 4.041836 2.462355 1.235211 -5.718591 16.799570 19.800516 9.204991 16.591799 -2.254403 10.592033 19.104690 -2.364538 15.483283 -36.756669 -20.267224 -0.000002 -0.000003 -4.005325 -0.000002 -0.000003 -4.005325 0.000004 -0.000000 -3.204259 0.000000 0.000002 -1.602135 -0.000000 -0.000003 4.012019 -0.000000 -0.000003 4.012019 0.000002 0.000000 3.209608 -0.000002 0.000002 1.604804 0.000002 0.000000 -6.447126 0.000002 0.000000 -6.447126 0.000002 -0.000002 -5.157703 -0.000002 0.000002 -2.578849 -0.000000 -0.000002 9.026060 -0.000000 -0.000002 9.026060 0.000002 0.000000 7.220844 -0.000000 -0.000000 3.610419 29.079011 6.301350 4.692526 9.073846 9.609381 0.749557 0.000000 -0.609159 0.000000 8.983360 0.717973 -4.932785 0.000000 -10.317253 0.000000 -0.874770 8.559183 -2.581200 0.000000 0.250019 0.000000 -5.547247 -2.732886 -0.065580 0.000000 -6.919409 0.000000
-29.838013 93.604590 1.654153 1.002495 -1.526982 1.085112 0.732285 0.071053 -0.354896 0.612649 0.067279 -0.308571 0.334671 0.053299 -0.244758 0.216224 0.003799 -0.168994 -2.589411 -5.363561 -0.763735 -1.093740 5.430214 0.317904 6.129505 -0.350199 11.705390 -1.503495 2.780332 -3.809147 -4.074603 2.461143 -2.910256 7.917396 13.381614 -14.960103 29.079011 6.301350 4.692526 33.509167 7.010873 5.654939 -0.920763 -16.235267 5.400335 0.000005 -0.000004 9.345799 0.000005 -0.000004 9.345799 -0.000021 0.000006 7.476631 0.000012 0.000005 3.738323 -0.000013 -0.000004 -7.737161 -0.000013 -0.000004 -7.737161 0.000009 -0.000004 -6.189726 0.000000 -0.000000 -3.094866 -0.000002 -0.000003 6.831365 -0.000002 -0.000003 6.831365 0.000007 -0.000003 5.465094 -0.000000 -0.000000 2.732548 -0.000011 -0.000010 3.531036 -0.000011 -0.000010 3.531036 -0.000000 -0.000007 2.824826 0.000007 0.000000 1.412416 -168.518891 -0.014019 -179.860548 -4.695278 -0.832790 -12.933424 9.469503 -5.310897 1.122396 4.050179 2.525574 1.260084 -5.715492 16.730549 19.773647 9.204991 16.591799 -2.254403 10.592033 19.104690 -2.364538 15.483283 -36.756669 -20.267224 -0.000002 -0.000003 -4.005325 -0.000002 -0.000003 -4.005325 0.000004 -0.000000 -3.204259 0.000000 0.000002 -1.602135 -0.000000 -0.000003 4.012019 -0.000000 -0.000003 4.012019 0.000002 0.000000 3.209608 -0.000002 0.000002 1.604804 0.000002 0.000000 -6.447126 0.000002 0.000000 -6.447126 0.000002 -0.000002 -5.157703 -0.000002 0.000002 -2.578849 -0.000000 -0.000002 9.026060 -0.000000 -0.000002 9.026060 0.000002 0.000000 7.220844 -0.000000 -0.000000 3.610419 29.079011 6.301350 4.692526 9.057745 9.607532 0.749754 0.000000 -0.609255 0.000000 8.993684 0.733036 -4.954839 0.000000 -10.347333 0.000000 -0.872720 8.556628 -2.581036 0.000000 0.252211 0.000000 -5.547962 -2.727656 -0.072043 0.000000 -6.917659 0.000000
-29.840332 93.607959 1.648448 0.991649 -1.530551 1.081671 0.728798 0.089941 -0.355131 0.610563 0.060492 -0.305061 0.332203 0.044340 -0.239949 0.213856 0.017921 -0.166519 -2.622787 -5.395955 -0.764465 -1.108209 5.440821 0.326725 6.143842 -0.352750 11.684844 -1.507416 2.799027 -3.794872 -4.075243 2.490267 -2.908390 7.909550 13.340613 -14.980889 29.079011 6.301350 4.692526 33.509167 7.010873 5.654939 -0.920763 -16.235267 5.400335 0.000005 -0.000004 9.345799 0.000005 -0.000004 9.345799 -0.000021 0.000006 7.476631 0.000012 0.000005 3.738323 -0.000013 -0.000004 -7.737161 -0.000013 -0.000004 -7.737161 0.000009 -0.000004 -6.189726 0.000000 -0.000000 -3.094866 -0.000002 -0.000003 6.831365 -0.000002 -0.000003 6.831365 0.000007 -0.000003 5.465094 -0.000000 -0.000000 2.732548 -0.000011 -0.000010 3.531036 -0.000011 -0.000010 3.531036 -0.000000 -0.000007 2.824826 0.000007 0.000000 1.412416 -168.518891 -0.014019 -179.860548 -4.704265 -0.837526 -12.938208 9.500084 -5.320328 1.151348 4.024399 2.526865 1.240885 -5.698307 16.724134 19.758866 9.204991 16.591799 -2.254403 10.592033 19.104690 -2.364538 15.483283 -36.756669 -20.267224 -0.000002 -0.000003 -4.005325 -0.000002 -0.000003 -4.005325 0.000004 -0.000000 -3.204259 0.000000 0.000002 -1.602135 -0.000000 -0.000003 4.012019 -0.000000 -0.000003 4.012019 0.000002 0.000000 3.209608 -0.000002 0.000002 1.604804 0.000002 0.000000 -6.447126 0.000002 0.000000 -6.447126 0.000002 -0.000002 -5.157703 -0.000002 0.000002 -2.578849 -0.000000 -0.000002 9.026060 -0.000000 -0.000002 9.026060 0.000002 0.000000 7.220844 -0.000000 -0.000000 3.610419 29.079011 6.301350 4.692526 9.091216 9.606893 0.760833 0.000000 -0.607245 0.000000 8.962426 0.739535 -4.989004 0.000000 -10.340274 0.000000 -0.860834 8.551367 -2.577199 0.000000 0.266620 0.000000 -5.547197 -2.721385 -0.039282 0.000000 -6.902747 0.000000
